<svg width="1200" xmlns="http://www.w3.org/2000/svg" height="1200" fill="none"><g xmlns:xlink="http://www.w3.org/1999/xlink" xml:space="preserve" style="fill: rgb(0, 0, 0);"><rect rx="0" ry="0" transform="matrix(1.000000, 0.000000, 0.000000, 1.000000, 0.000000, 0.000000)" width="1200" height="1200" style="fill: rgb(255, 255, 255); fill-opacity: 0;" fill="none" class="fills"/><rect rx="0" ry="0" x="336" y="304" transform="matrix(1.000000, 0.000000, 0.000000, 1.000000, 0.000000, 0.000000)" width="128" height="128" style="fill: rgb(198, 215, 40); fill-opacity: 1;" class="fills"/><path d="M560.000,1104.000L576.000,1120.000L576.000,1056.000L560.000,1040.000Z" style="fill: rgb(198, 215, 40); fill-opacity: 1;" class="fills"/><path d="M560.000,1104.000L592.000,1072.000L592.000,944.000L560.000,976.000Z" style="fill: rgb(41, 41, 42); fill-opacity: 1;" class="fills"/><rect rx="0" ry="0" x="524.109" y="780.117" transform="matrix(0.707107, -0.707107, 0.707107, 0.707107, -426.235433, 666.973236)" width="135.763" height="135.763" class="fills"/><path d="M720.000,880.000L592.000,752.000L592.000,736.000L720.000,864.000Z" style="fill: rgb(41, 41, 42); fill-opacity: 1;" class="fills"/><path d="M720.000,848.000L592.000,720.000L592.000,704.000L720.000,832.000Z" class="fills"/><path d="M720.000,368.000L592.000,496.000L592.000,432.000L720.000,304.000Z" style="fill: rgb(198, 215, 40); fill-opacity: 1;" class="fills"/><path d="M784.000,624.000L720.000,688.000L720.000,560.000L784.000,496.000Z" style="fill: rgb(198, 215, 40); fill-opacity: 1;" class="fills"/><path d="M752.000,656.000L720.000,656.000L720.000,640.000L768.000,640.000Z" style="fill: rgb(41, 41, 42); fill-opacity: 1;" class="fills"/><path d="M720.000,688.000L720.000,672.000L736.000,672.000Z" class="fills"/><path d="M464.000,816.000L400.000,880.000L400.000,816.000L464.000,752.000Z" style="fill: rgb(41, 41, 42); fill-opacity: 1;" class="fills"/><path d="M368.000,656.000L336.000,688.000L336.000,560.000L368.000,528.000Z" style="fill: rgb(41, 41, 42); fill-opacity: 1;" class="fills"/><path d="M720.000,880.000L784.000,944.000L784.000,816.000L720.000,752.000Z" style="fill: rgb(198, 215, 40); fill-opacity: 1;" class="fills"/><path d="M464.000,816.000L336.000,688.000L336.000,624.000L464.000,752.000Z" style="fill: rgb(41, 41, 42); fill-opacity: 1;" class="fills"/><path d="M464.000,752.000L336.000,624.000L336.000,560.000L464.000,688.000Z" style="fill: rgb(198, 215, 40); fill-opacity: 1;" class="fills"/><path d="M592.000,688.000L464.000,816.000L464.000,688.000L592.000,560.000Z" style="fill: rgb(41, 41, 42); fill-opacity: 1;" class="fills"/><path d="M592.000,752.000L464.000,880.000L464.000,816.000L592.000,688.000Z" style="fill: rgb(198, 215, 40); fill-opacity: 1;" class="fills"/><path d="M656.000,752.000L592.000,688.000L592.000,560.000L656.000,624.000Z" style="fill: rgb(198, 215, 40); fill-opacity: 1;" class="fills"/><path d="M720.000,816.000L656.000,752.000L656.000,624.000L720.000,688.000Z" class="fills"/><path d="M720.000,304.000L592.000,432.000L592.000,304.000L720.000,176.000Z" style="fill: rgb(41, 41, 42); fill-opacity: 1;" class="fills"/><path d="M720.000,688.000L592.000,560.000L592.000,432.000L720.000,560.000Z" style="fill: rgb(41, 41, 42); fill-opacity: 1;" class="fills"/><path d="M592.000,432.000L464.000,560.000L464.000,496.000L592.000,368.000Z" style="fill: rgb(198, 215, 40); fill-opacity: 1;" class="fills"/><path d="M720.000,624.000L848.000,752.000L848.000,688.000L720.000,560.000Z" class="fills"/><path d="M720.000,688.000L848.000,816.000L848.000,800.000L720.000,672.000Z" style="fill: rgb(198, 215, 40); fill-opacity: 1;" class="fills"/><path d="M720.000,656.000L848.000,784.000L848.000,768.000L720.000,640.000Z" style="fill: rgb(198, 215, 40); fill-opacity: 1;" class="fills"/><path d="M592.000,944.000L720.000,816.000L720.000,752.000L592.000,880.000Z" style="fill: rgb(198, 215, 40); fill-opacity: 1;" class="fills"/><path d="M592.000,1072.000L464.000,944.000L464.000,816.000L592.000,944.000Z" style="fill: rgb(198, 215, 40); fill-opacity: 1;" class="fills"/><path d="M720.000,688.000L592.000,816.000L592.000,688.000L720.000,560.000Z" style="fill: rgb(198, 215, 40); fill-opacity: 1;" class="fills"/><path d="M720.000,432.000L720.000,304.000L784.000,368.000L784.000,496.000Z" style="fill: rgb(198, 215, 40); fill-opacity: 1;" class="fills"/><path d="M368.000,528.000L336.000,496.000L336.000,432.000L368.000,464.000Z" style="fill: rgb(198, 215, 40); fill-opacity: 1;" class="fills"/><path d="M688.000,256.000L671.992,272.000L624.000,272.000L624.000,208.000L688.000,208.000Z" style="fill: rgb(198, 215, 40); fill-opacity: 1;" class="fills"/><path d="M672.000,272.000L672.000,256.000L688.000,256.000Z" style="fill: rgb(255, 255, 255); fill-opacity: 0;" fill="none" class="fills"/><path d="M400.000,880.000L464.000,944.000L464.000,880.000L400.000,816.000Z" style="fill: rgb(198, 215, 40); fill-opacity: 1;" class="fills"/><g style="fill: rgb(0, 0, 0);"><ellipse cx="432" cy="928" rx="2" ry="2" transform="matrix(1.000000, 0.000000, 0.000000, 1.000000, 0.000000, 0.000000)" class="fills"/><ellipse cx="432" cy="944" rx="2" ry="2" transform="matrix(1.000000, 0.000000, 0.000000, 1.000000, 0.000000, 0.000000)" class="fills"/><ellipse cx="432" cy="960" rx="2" ry="2" transform="matrix(1.000000, 0.000000, 0.000000, 1.000000, 0.000000, 0.000000)" class="fills"/><path d="M434.000,976.000C434.000,974.896,433.105,974.000,432.000,974.000C431.447,974.000,430.947,974.224,430.586,974.586L433.414,977.415C433.776,977.052,434.000,976.552,434.000,976.000ZZ" class="fills"/><path d="M464.000,1006.000C463.447,1006.000,462.947,1006.224,462.586,1006.586L464.000,1008.000L464.000,1006.000ZZ" class="fills"/><path d="M450.000,992.000C450.000,990.896,449.105,990.000,448.000,990.000C447.447,990.000,446.947,990.224,446.586,990.586L449.414,993.415C449.776,993.052,450.000,992.552,450.000,992.000ZZ" class="fills"/><path d="M462.000,992.000C462.000,993.104,462.895,994.000,464.000,994.000L464.000,990.000C462.895,990.000,462.000,990.896,462.000,992.000ZZ" class="fills"/><ellipse cx="448" cy="976" rx="2" ry="2" transform="matrix(1.000000, 0.000000, 0.000000, 1.000000, 0.000000, 0.000000)" class="fills"/><path d="M462.000,976.000C462.000,977.104,462.895,978.000,464.000,978.000L464.000,974.000C462.895,974.000,462.000,974.896,462.000,976.000ZZ" class="fills"/><ellipse cx="448" cy="960" rx="2" ry="2" transform="matrix(1.000000, 0.000000, 0.000000, 1.000000, 0.000000, 0.000000)" class="fills"/><path d="M462.000,960.000C462.000,961.104,462.895,962.000,464.000,962.000L464.000,958.000C462.895,958.000,462.000,958.896,462.000,960.000ZZ" class="fills"/><ellipse cx="448" cy="944" rx="2" ry="2" transform="matrix(1.000000, 0.000000, 0.000000, 1.000000, 0.000000, 0.000000)" class="fills"/><path d="M462.000,944.000C462.000,945.104,462.895,946.000,464.000,946.000L464.000,944.000L462.586,942.586C462.224,942.948,462.000,943.448,462.000,944.000ZZ" class="fills"/><path d="M446.000,928.000C446.000,929.104,446.895,930.000,448.000,930.000C448.553,930.000,449.053,929.776,449.414,929.414L446.586,926.585C446.224,926.948,446.000,927.448,446.000,928.000ZZ" class="fills"/><path d="M438.000,920.000C438.000,921.104,438.895,922.000,440.000,922.000C440.553,922.000,441.053,921.776,441.414,921.414L438.586,918.585C438.224,918.948,438.000,919.448,438.000,920.000ZZ" class="fills"/><ellipse cx="440" cy="936" rx="2" ry="2" transform="matrix(1.000000, 0.000000, 0.000000, 1.000000, 0.000000, 0.000000)" class="fills"/><ellipse cx="440" cy="952" rx="2" ry="2" transform="matrix(1.000000, 0.000000, 0.000000, 1.000000, 0.000000, 0.000000)" class="fills"/><ellipse cx="440" cy="968" rx="2" ry="2" transform="matrix(1.000000, 0.000000, 0.000000, 1.000000, 0.000000, 0.000000)" class="fills"/><path d="M442.000,984.000C442.000,982.896,441.105,982.000,440.000,982.000C439.447,982.000,438.947,982.224,438.586,982.586L441.414,985.415C441.776,985.052,442.000,984.552,442.000,984.000ZZ" class="fills"/><path d="M458.000,1000.000C458.000,998.896,457.105,998.000,456.000,998.000C455.447,998.000,454.947,998.224,454.586,998.586L457.414,1001.415C457.776,1001.052,458.000,1000.552,458.000,1000.000ZZ" class="fills"/><ellipse cx="456" cy="984" rx="2" ry="2" transform="matrix(1.000000, 0.000000, 0.000000, 1.000000, 0.000000, 0.000000)" class="fills"/><ellipse cx="456" cy="968" rx="2" ry="2" transform="matrix(1.000000, 0.000000, 0.000000, 1.000000, 0.000000, 0.000000)" class="fills"/><ellipse cx="456" cy="952" rx="2" ry="2" transform="matrix(1.000000, 0.000000, 0.000000, 1.000000, 0.000000, 0.000000)" class="fills"/><path d="M454.000,936.000C454.000,937.104,454.895,938.000,456.000,938.000C456.553,938.000,457.053,937.776,457.414,937.414L454.586,934.585C454.224,934.948,454.000,935.448,454.000,936.000ZZ" class="fills"/><path d="M430.000,912.000C430.000,913.104,430.895,914.000,432.000,914.000C432.553,914.000,433.053,913.776,433.414,913.414L430.586,910.585C430.224,910.948,430.000,911.448,430.000,912.000ZZ" class="fills"/><ellipse cx="416" cy="912" rx="2" ry="2" transform="matrix(1.000000, 0.000000, 0.000000, 1.000000, 0.000000, 0.000000)" class="fills"/><path d="M402.000,896.000C402.000,894.896,401.105,894.000,400.000,894.000L400.000,898.000C401.105,898.000,402.000,897.104,402.000,896.000ZZ" class="fills"/><path d="M414.000,896.000C414.000,897.104,414.895,898.000,416.000,898.000C416.553,898.000,417.053,897.776,417.414,897.414L414.586,894.585C414.224,894.948,414.000,895.448,414.000,896.000ZZ" class="fills"/><path d="M400.000,882.000C400.553,882.000,401.053,881.776,401.414,881.414L400.000,880.000L400.000,882.000ZZ" class="fills"/><ellipse cx="408" cy="904" rx="2" ry="2" transform="matrix(1.000000, 0.000000, 0.000000, 1.000000, 0.000000, 0.000000)" class="fills"/><path d="M422.000,904.000C422.000,905.104,422.895,906.000,424.000,906.000C424.553,906.000,425.053,905.776,425.414,905.414L422.586,902.585C422.224,902.948,422.000,903.448,422.000,904.000ZZ" class="fills"/><path d="M406.000,888.000C406.000,889.104,406.895,890.000,408.000,890.000C408.553,890.000,409.053,889.776,409.414,889.414L406.586,886.585C406.224,886.948,406.000,887.448,406.000,888.000ZZ" class="fills"/><path d="M418.000,960.000C418.000,958.896,417.105,958.000,416.000,958.000C415.447,958.000,414.947,958.224,414.586,958.586L417.414,961.415C417.776,961.052,418.000,960.552,418.000,960.000ZZ" class="fills"/><path d="M402.000,944.000C402.000,942.896,401.105,942.000,400.000,942.000L400.000,944.000L401.414,945.414C401.776,945.052,402.000,944.552,402.000,944.000ZZ" class="fills"/><ellipse cx="416" cy="944" rx="2" ry="2" transform="matrix(1.000000, 0.000000, 0.000000, 1.000000, 0.000000, 0.000000)" class="fills"/><path d="M402.000,928.000C402.000,926.896,401.105,926.000,400.000,926.000L400.000,930.000C401.105,930.000,402.000,929.104,402.000,928.000ZZ" class="fills"/><path d="M402.000,912.000C402.000,910.896,401.105,910.000,400.000,910.000L400.000,914.000C401.105,914.000,402.000,913.104,402.000,912.000ZZ" class="fills"/><ellipse cx="416" cy="928" rx="2" ry="2" transform="matrix(1.000000, 0.000000, 0.000000, 1.000000, 0.000000, 0.000000)" class="fills"/><ellipse cx="424" cy="920" rx="2" ry="2" transform="matrix(1.000000, 0.000000, 0.000000, 1.000000, 0.000000, 0.000000)" class="fills"/><path d="M426.000,968.000C426.000,966.896,425.105,966.000,424.000,966.000C423.447,966.000,422.947,966.224,422.586,966.586L425.414,969.415C425.776,969.052,426.000,968.552,426.000,968.000ZZ" class="fills"/><path d="M410.000,952.000C410.000,950.896,409.105,950.000,408.000,950.000C407.447,950.000,406.947,950.224,406.586,950.586L409.414,953.415C409.776,953.052,410.000,952.552,410.000,952.000ZZ" class="fills"/><ellipse cx="424" cy="952" rx="2" ry="2" transform="matrix(1.000000, 0.000000, 0.000000, 1.000000, 0.000000, 0.000000)" class="fills"/><ellipse cx="408" cy="936" rx="2" ry="2" transform="matrix(1.000000, 0.000000, 0.000000, 1.000000, 0.000000, 0.000000)" class="fills"/><ellipse cx="408" cy="920" rx="2" ry="2" transform="matrix(1.000000, 0.000000, 0.000000, 1.000000, 0.000000, 0.000000)" class="fills"/><ellipse cx="424" cy="936" rx="2" ry="2" transform="matrix(1.000000, 0.000000, 0.000000, 1.000000, 0.000000, 0.000000)" class="fills"/></g><path d="M592.000,944.000L528.000,1008.000L528.000,944.000L592.000,880.000Z" style="fill: rgb(41, 41, 42); fill-opacity: 1;" class="fills"/><g style="fill: rgb(0, 0, 0);"><path d="M412.437,483.563L410.602,485.398L464.000,485.398L464.000,483.563Z" class="fills"/><path d="M427.118,468.882L425.282,470.718L464.000,470.718L464.000,468.882Z" class="fills"/><path d="M441.799,454.201L439.963,456.036L464.000,456.036L464.000,454.201Z" class="fills"/><path d="M456.479,439.521L454.645,441.356L464.000,441.356L464.000,439.521Z" class="fills"/><path d="M400.000,556.968L400.000,558.803L401.197,558.803L403.032,556.968Z" class="fills"/><path d="M400.000,542.287L400.000,544.122L415.878,544.122L417.713,542.287Z" class="fills"/><path d="M400.000,527.606L400.000,529.441L430.559,529.441L432.394,527.606Z" class="fills"/><path d="M400.000,512.925L400.000,514.760L445.240,514.760L447.075,512.925Z" class="fills"/><path d="M400.000,498.244L400.000,500.079L459.920,500.079L461.756,498.244Z" class="fills"/></g><path d="M592.000,320.000L464.000,448.000L464.000,432.000L592.000,304.000Z" class="fills"/><path d="M592.000,352.000L464.000,480.000L464.000,464.000L592.000,336.000Z" class="fills"/><path d="M736.000,492.000L724.000,492.000L724.000,480.000L716.000,480.000L716.000,492.000L704.000,492.000L704.000,500.000L716.000,500.000L716.000,512.000L724.000,512.000L724.000,500.000L736.000,500.000Z" class="fills"/><g style="fill: rgb(0, 0, 0);"><path d="M848.000,672.000L848.000,672.000Z" style="fill: none; stroke-linejoin: round;" class="fills"/><g class="strokes" style="fill: none; stroke-linejoin: round;"><path d="M848.000,672.000L848.000,672.000Z" style="fill: none; stroke-width: 4; stroke: rgb(41, 41, 42); stroke-opacity: 1;" class="stroke-shape"/></g><path d="M848.000,664.000L848.000,372.000" style="fill: none; stroke-linejoin: round; stroke-dasharray: 0, 8;" class="fills"/><g class="strokes" style="fill: none; stroke-linejoin: round; stroke-dasharray: 0, 8;"><path d="M848.000,664.000L848.000,372.000" style="fill: none; stroke-width: 4; stroke: rgb(41, 41, 42); stroke-opacity: 1;" class="stroke-shape"/></g><path d="M848.000,368.000L848.000,368.000Z" style="fill: none; stroke-linejoin: round;" class="fills"/><g class="strokes" style="fill: none; stroke-linejoin: round;"><path d="M848.000,368.000L848.000,368.000Z" style="fill: none; stroke-width: 4; stroke: rgb(41, 41, 42); stroke-opacity: 1;" class="stroke-shape"/></g><path d="M840.000,368.000L804.000,368.000" style="fill: none; stroke-linejoin: round; stroke-dasharray: 0, 8;" class="fills"/><g class="strokes" style="fill: none; stroke-linejoin: round; stroke-dasharray: 0, 8;"><path d="M840.000,368.000L804.000,368.000" style="fill: none; stroke-width: 4; stroke: rgb(41, 41, 42); stroke-opacity: 1;" class="stroke-shape"/></g><path d="M800.000,368.000L800.000,368.000Z" style="fill: none; stroke-linejoin: round;" class="fills"/><g class="strokes" style="fill: none; stroke-linejoin: round;"><path d="M800.000,368.000L800.000,368.000Z" style="fill: none; stroke-width: 4; stroke: rgb(41, 41, 42); stroke-opacity: 1;" class="stroke-shape"/></g></g><g style="fill: rgb(0, 0, 0);"><path d="M600.000,1064.000L600.000,1064.000Z" style="fill: none; stroke-linejoin: round;" class="fills"/><g class="strokes" style="fill: none; stroke-linejoin: round;"><path d="M600.000,1064.000L600.000,1064.000Z" style="fill: none; stroke-width: 4; stroke: rgb(41, 41, 42); stroke-opacity: 1;" class="stroke-shape"/></g><path d="M605.760,1058.240L741.120,922.880" style="fill: none; stroke-linejoin: round; stroke-dasharray: 0, 8.1459;" class="fills"/><g class="strokes" style="fill: none; stroke-linejoin: round; stroke-dasharray: 0, 8.1459;"><path d="M605.760,1058.240L741.120,922.880" style="fill: none; stroke-width: 4; stroke: rgb(41, 41, 42); stroke-opacity: 1;" class="stroke-shape"/></g><path d="M744.000,920.000L744.000,920.000Z" style="fill: none; stroke-linejoin: round;" class="fills"/><g class="strokes" style="fill: none; stroke-linejoin: round;"><path d="M744.000,920.000L744.000,920.000Z" style="fill: none; stroke-width: 4; stroke: rgb(41, 41, 42); stroke-opacity: 1;" class="stroke-shape"/></g></g><g style="fill: rgb(0, 0, 0);"><ellipse cx="816" cy="672" rx="2" ry="2" transform="matrix(1.000000, 0.000000, 0.000000, 1.000000, 0.000000, 0.000000)" style="fill: rgb(255, 255, 255); fill-opacity: 0;" fill="none" class="fills"/><ellipse cx="816" cy="688" rx="2" ry="2" transform="matrix(1.000000, 0.000000, 0.000000, 1.000000, 0.000000, 0.000000)" style="fill: rgb(255, 255, 255); fill-opacity: 0;" fill="none" class="fills"/><ellipse cx="816" cy="704" rx="2" ry="2" transform="matrix(1.000000, 0.000000, 0.000000, 1.000000, 0.000000, 0.000000)" style="fill: rgb(255, 255, 255); fill-opacity: 0;" fill="none" class="fills"/><path d="M816.000,718.000C815.447,718.000,814.947,718.224,814.585,718.585L817.414,721.414C817.776,721.052,817.999,720.552,817.999,719.999C818.000,718.895,817.105,718.000,816.000,718.000ZZ" style="fill: rgb(255, 255, 255); fill-opacity: 0;" fill="none" class="fills"/><path d="M848.000,750.000C847.447,750.000,846.947,750.224,846.586,750.586L848.000,752.000L848.000,750.000ZZ" style="fill: rgb(255, 255, 255); fill-opacity: 0;" fill="none" class="fills"/><path d="M834.000,736.000C834.000,734.896,833.105,734.000,832.000,734.000C831.447,734.000,830.947,734.224,830.586,734.586L833.414,737.415C833.776,737.052,834.000,736.552,834.000,736.000ZZ" style="fill: rgb(255, 255, 255); fill-opacity: 0;" fill="none" class="fills"/><path d="M846.000,736.000C846.000,737.104,846.895,738.000,848.000,738.000L848.000,734.000C846.895,734.000,846.000,734.896,846.000,736.000ZZ" style="fill: rgb(255, 255, 255); fill-opacity: 0;" fill="none" class="fills"/><ellipse cx="832" cy="720" rx="2" ry="2" transform="matrix(1.000000, 0.000000, 0.000000, 1.000000, 0.000000, 0.000000)" style="fill: rgb(255, 255, 255); fill-opacity: 0;" fill="none" class="fills"/><path d="M846.000,720.000C846.000,721.105,846.895,722.000,848.000,722.000L848.000,718.000C846.895,718.000,846.000,718.895,846.000,720.000ZZ" style="fill: rgb(255, 255, 255); fill-opacity: 0;" fill="none" class="fills"/><ellipse cx="832" cy="704" rx="2" ry="2" transform="matrix(1.000000, 0.000000, 0.000000, 1.000000, 0.000000, 0.000000)" style="fill: rgb(255, 255, 255); fill-opacity: 0;" fill="none" class="fills"/><path d="M846.000,704.000C846.000,705.105,846.895,706.000,848.000,706.000L848.000,702.000C846.895,702.000,846.000,702.895,846.000,704.000ZZ" style="fill: rgb(255, 255, 255); fill-opacity: 0;" fill="none" class="fills"/><ellipse cx="832" cy="688" rx="2" ry="2" transform="matrix(1.000000, 0.000000, 0.000000, 1.000000, 0.000000, 0.000000)" style="fill: rgb(255, 255, 255); fill-opacity: 0;" fill="none" class="fills"/><path d="M848.000,690.000L848.000,688.000L846.585,686.585C846.224,686.947,846.000,687.447,846.000,688.000C846.000,689.105,846.895,690.000,848.000,690.000ZZ" style="fill: rgb(255, 255, 255); fill-opacity: 0;" fill="none" class="fills"/><path d="M832.000,674.000C832.553,674.000,833.053,673.776,833.415,673.415L830.586,670.586C830.224,670.947,830.000,671.447,830.000,672.000C830.000,673.105,830.895,674.000,832.000,674.000ZZ" style="fill: rgb(255, 255, 255); fill-opacity: 0;" fill="none" class="fills"/><path d="M824.000,666.000C824.553,666.000,825.053,665.776,825.415,665.415L822.586,662.586C822.224,662.947,822.000,663.447,822.000,664.000C822.000,665.105,822.895,666.000,824.000,666.000ZZ" style="fill: rgb(255, 255, 255); fill-opacity: 0;" fill="none" class="fills"/><ellipse cx="824" cy="680" rx="2" ry="2" transform="matrix(1.000000, 0.000000, 0.000000, 1.000000, 0.000000, 0.000000)" style="fill: rgb(255, 255, 255); fill-opacity: 0;" fill="none" class="fills"/><ellipse cx="824" cy="696" rx="2" ry="2" transform="matrix(1.000000, 0.000000, 0.000000, 1.000000, 0.000000, 0.000000)" style="fill: rgb(255, 255, 255); fill-opacity: 0;" fill="none" class="fills"/><ellipse cx="824" cy="712" rx="2" ry="2" transform="matrix(1.000000, 0.000000, 0.000000, 1.000000, 0.000000, 0.000000)" style="fill: rgb(255, 255, 255); fill-opacity: 0;" fill="none" class="fills"/><path d="M824.000,726.000C823.447,726.000,822.947,726.224,822.585,726.585L825.414,729.414C825.776,729.052,825.999,728.552,825.999,727.999C826.000,726.895,825.105,726.000,824.000,726.000ZZ" style="fill: rgb(255, 255, 255); fill-opacity: 0;" fill="none" class="fills"/><path d="M842.000,744.000C842.000,742.896,841.105,742.000,840.000,742.000C839.447,742.000,838.947,742.224,838.586,742.586L841.414,745.415C841.776,745.052,842.000,744.552,842.000,744.000ZZ" style="fill: rgb(255, 255, 255); fill-opacity: 0;" fill="none" class="fills"/><ellipse cx="840" cy="728" rx="2" ry="2" transform="matrix(1.000000, 0.000000, 0.000000, 1.000000, 0.000000, 0.000000)" style="fill: rgb(255, 255, 255); fill-opacity: 0;" fill="none" class="fills"/><ellipse cx="840" cy="712" rx="2" ry="2" transform="matrix(1.000000, 0.000000, 0.000000, 1.000000, 0.000000, 0.000000)" style="fill: rgb(255, 255, 255); fill-opacity: 0;" fill="none" class="fills"/><ellipse cx="840" cy="696" rx="2" ry="2" transform="matrix(1.000000, 0.000000, 0.000000, 1.000000, 0.000000, 0.000000)" style="fill: rgb(255, 255, 255); fill-opacity: 0;" fill="none" class="fills"/><path d="M840.000,682.000C840.553,682.000,841.053,681.776,841.415,681.415L838.586,678.586C838.224,678.947,838.000,679.447,838.000,680.000C838.000,681.105,838.895,682.000,840.000,682.000ZZ" style="fill: rgb(255, 255, 255); fill-opacity: 0;" fill="none" class="fills"/><path d="M814.000,656.000C814.000,657.105,814.895,658.000,816.000,658.000C816.553,658.000,817.053,657.776,817.415,657.415L814.586,654.586C814.224,654.948,814.000,655.448,814.000,656.000ZZ" style="fill: rgb(255, 255, 255); fill-opacity: 0;" fill="none" class="fills"/><path d="M752.000,654.000C751.447,654.000,750.947,654.224,750.586,654.586L753.415,657.415C753.777,657.053,754.000,656.553,754.000,656.000C754.000,654.896,753.105,654.000,752.000,654.000ZZ" style="fill: rgb(255, 255, 255); fill-opacity: 0;" fill="none" class="fills"/><ellipse cx="768" cy="656" rx="2" ry="2" transform="matrix(1.000000, 0.000000, 0.000000, 1.000000, 0.000000, 0.000000)" style="fill: rgb(255, 255, 255); fill-opacity: 0;" fill="none" class="fills"/><ellipse cx="784" cy="656" rx="2" ry="2" transform="matrix(1.000000, 0.000000, 0.000000, 1.000000, 0.000000, 0.000000)" style="fill: rgb(255, 255, 255); fill-opacity: 0;" fill="none" class="fills"/><ellipse cx="800" cy="656" rx="2" ry="2" transform="matrix(1.000000, 0.000000, 0.000000, 1.000000, 0.000000, 0.000000)" style="fill: rgb(255, 255, 255); fill-opacity: 0;" fill="none" class="fills"/><path d="M738.000,640.000C738.000,638.896,737.105,638.000,736.000,638.000C735.447,638.000,734.947,638.224,734.586,638.586L737.414,641.415C737.776,641.052,738.000,640.552,738.000,640.000ZZ" style="fill: rgb(255, 255, 255); fill-opacity: 0;" fill="none" class="fills"/><ellipse cx="752" cy="640" rx="2" ry="2" transform="matrix(1.000000, 0.000000, 0.000000, 1.000000, 0.000000, 0.000000)" style="fill: rgb(255, 255, 255); fill-opacity: 0;" fill="none" class="fills"/><ellipse cx="768" cy="640" rx="2" ry="2" transform="matrix(1.000000, 0.000000, 0.000000, 1.000000, 0.000000, 0.000000)" style="fill: rgb(255, 255, 255); fill-opacity: 0;" fill="none" class="fills"/><ellipse cx="784" cy="640" rx="2" ry="2" transform="matrix(1.000000, 0.000000, 0.000000, 1.000000, 0.000000, 0.000000)" style="fill: rgb(255, 255, 255); fill-opacity: 0;" fill="none" class="fills"/><path d="M798.000,640.000C798.000,641.104,798.895,642.000,800.000,642.000C800.553,642.000,801.053,641.776,801.414,641.414L798.586,638.585C798.224,638.948,798.000,639.448,798.000,640.000ZZ" style="fill: rgb(255, 255, 255); fill-opacity: 0;" fill="none" class="fills"/><path d="M722.000,624.000C722.000,622.896,721.105,622.000,720.000,622.000L720.000,624.000L721.414,625.414C721.776,625.052,722.000,624.552,722.000,624.000ZZ" style="fill: rgb(255, 255, 255); fill-opacity: 0;" fill="none" class="fills"/><ellipse cx="736" cy="624" rx="2" ry="2" transform="matrix(1.000000, 0.000000, 0.000000, 1.000000, 0.000000, 0.000000)" style="fill: rgb(255, 255, 255); fill-opacity: 0;" fill="none" class="fills"/><ellipse cx="752" cy="624" rx="2" ry="2" transform="matrix(1.000000, 0.000000, 0.000000, 1.000000, 0.000000, 0.000000)" style="fill: rgb(255, 255, 255); fill-opacity: 0;" fill="none" class="fills"/><ellipse cx="768" cy="624" rx="2" ry="2" transform="matrix(1.000000, 0.000000, 0.000000, 1.000000, 0.000000, 0.000000)" style="fill: rgb(255, 255, 255); fill-opacity: 0;" fill="none" class="fills"/><path d="M782.000,624.000C782.000,625.104,782.895,626.000,784.000,626.000C784.553,626.000,785.053,625.776,785.414,625.414L782.586,622.585C782.224,622.948,782.000,623.448,782.000,624.000ZZ" style="fill: rgb(255, 255, 255); fill-opacity: 0;" fill="none" class="fills"/><path d="M722.000,608.000C722.000,606.896,721.105,606.000,720.000,606.000L720.000,610.000C721.105,610.000,722.000,609.104,722.000,608.000ZZ" style="fill: rgb(255, 255, 255); fill-opacity: 0;" fill="none" class="fills"/><ellipse cx="736" cy="608" rx="2" ry="2" transform="matrix(1.000000, 0.000000, 0.000000, 1.000000, 0.000000, 0.000000)" style="fill: rgb(255, 255, 255); fill-opacity: 0;" fill="none" class="fills"/><ellipse cx="752" cy="608" rx="2" ry="2" transform="matrix(1.000000, 0.000000, 0.000000, 1.000000, 0.000000, 0.000000)" style="fill: rgb(255, 255, 255); fill-opacity: 0;" fill="none" class="fills"/><path d="M766.000,608.000C766.000,609.104,766.895,610.000,768.000,610.000C768.553,610.000,769.053,609.776,769.414,609.414L766.586,606.585C766.224,606.948,766.000,607.448,766.000,608.000ZZ" style="fill: rgb(255, 255, 255); fill-opacity: 0;" fill="none" class="fills"/><path d="M720.000,590.000L720.000,594.000C721.105,594.000,722.000,593.105,722.000,592.000C722.000,590.895,721.105,590.000,720.000,590.000ZZ" style="fill: rgb(255, 255, 255); fill-opacity: 0;" fill="none" class="fills"/><ellipse cx="736" cy="592" rx="2" ry="2" transform="matrix(1.000000, 0.000000, 0.000000, 1.000000, 0.000000, 0.000000)" style="fill: rgb(255, 255, 255); fill-opacity: 0;" fill="none" class="fills"/><path d="M752.000,594.000C752.553,594.000,753.053,593.776,753.415,593.415L750.586,590.586C750.224,590.947,750.000,591.447,750.000,592.000C750.000,593.105,750.895,594.000,752.000,594.000ZZ" style="fill: rgb(255, 255, 255); fill-opacity: 0;" fill="none" class="fills"/><path d="M720.000,574.000L720.000,578.000C721.105,578.000,722.000,577.105,722.000,576.000C722.000,574.895,721.105,574.000,720.000,574.000ZZ" style="fill: rgb(255, 255, 255); fill-opacity: 0;" fill="none" class="fills"/><path d="M736.000,578.000C736.553,578.000,737.053,577.776,737.415,577.415L734.586,574.586C734.224,574.947,734.000,575.447,734.000,576.000C734.000,577.105,734.895,578.000,736.000,578.000ZZ" style="fill: rgb(255, 255, 255); fill-opacity: 0;" fill="none" class="fills"/><path d="M720.000,562.000C720.553,562.000,721.053,561.776,721.415,561.415L720.000,560.000L720.000,562.000ZZ" style="fill: rgb(255, 255, 255); fill-opacity: 0;" fill="none" class="fills"/><path d="M746.000,648.000C746.000,646.896,745.105,646.000,744.000,646.000C743.447,646.000,742.947,646.224,742.586,646.586L745.414,649.415C745.776,649.052,746.000,648.552,746.000,648.000ZZ" style="fill: rgb(255, 255, 255); fill-opacity: 0;" fill="none" class="fills"/><ellipse cx="760" cy="648" rx="2" ry="2" transform="matrix(1.000000, 0.000000, 0.000000, 1.000000, 0.000000, 0.000000)" style="fill: rgb(255, 255, 255); fill-opacity: 0;" fill="none" class="fills"/><ellipse cx="776" cy="648" rx="2" ry="2" transform="matrix(1.000000, 0.000000, 0.000000, 1.000000, 0.000000, 0.000000)" style="fill: rgb(255, 255, 255); fill-opacity: 0;" fill="none" class="fills"/><ellipse cx="792" cy="648" rx="2" ry="2" transform="matrix(1.000000, 0.000000, 0.000000, 1.000000, 0.000000, 0.000000)" style="fill: rgb(255, 255, 255); fill-opacity: 0;" fill="none" class="fills"/><path d="M806.000,648.000C806.000,649.104,806.895,650.000,808.000,650.000C808.553,650.000,809.053,649.776,809.414,649.414L806.586,646.585C806.224,646.948,806.000,647.448,806.000,648.000ZZ" style="fill: rgb(255, 255, 255); fill-opacity: 0;" fill="none" class="fills"/><path d="M730.000,632.000C730.000,630.896,729.105,630.000,728.000,630.000C727.447,630.000,726.947,630.224,726.586,630.586L729.414,633.415C729.776,633.052,730.000,632.552,730.000,632.000ZZ" style="fill: rgb(255, 255, 255); fill-opacity: 0;" fill="none" class="fills"/><ellipse cx="744" cy="632" rx="2" ry="2" transform="matrix(1.000000, 0.000000, 0.000000, 1.000000, 0.000000, 0.000000)" style="fill: rgb(255, 255, 255); fill-opacity: 0;" fill="none" class="fills"/><ellipse cx="760" cy="632" rx="2" ry="2" transform="matrix(1.000000, 0.000000, 0.000000, 1.000000, 0.000000, 0.000000)" style="fill: rgb(255, 255, 255); fill-opacity: 0;" fill="none" class="fills"/><ellipse cx="776" cy="632" rx="2" ry="2" transform="matrix(1.000000, 0.000000, 0.000000, 1.000000, 0.000000, 0.000000)" style="fill: rgb(255, 255, 255); fill-opacity: 0;" fill="none" class="fills"/><path d="M790.000,632.000C790.000,633.104,790.895,634.000,792.000,634.000C792.553,634.000,793.053,633.776,793.414,633.414L790.586,630.585C790.224,630.948,790.000,631.448,790.000,632.000ZZ" style="fill: rgb(255, 255, 255); fill-opacity: 0;" fill="none" class="fills"/><ellipse cx="728" cy="616" rx="2" ry="2" transform="matrix(1.000000, 0.000000, 0.000000, 1.000000, 0.000000, 0.000000)" style="fill: rgb(255, 255, 255); fill-opacity: 0;" fill="none" class="fills"/><ellipse cx="744" cy="616" rx="2" ry="2" transform="matrix(1.000000, 0.000000, 0.000000, 1.000000, 0.000000, 0.000000)" style="fill: rgb(255, 255, 255); fill-opacity: 0;" fill="none" class="fills"/><ellipse cx="760" cy="616" rx="2" ry="2" transform="matrix(1.000000, 0.000000, 0.000000, 1.000000, 0.000000, 0.000000)" style="fill: rgb(255, 255, 255); fill-opacity: 0;" fill="none" class="fills"/><path d="M774.000,616.000C774.000,617.104,774.895,618.000,776.000,618.000C776.553,618.000,777.053,617.776,777.414,617.414L774.586,614.585C774.224,614.948,774.000,615.448,774.000,616.000ZZ" style="fill: rgb(255, 255, 255); fill-opacity: 0;" fill="none" class="fills"/><ellipse cx="728" cy="600" rx="2" ry="2" transform="matrix(1.000000, 0.000000, 0.000000, 1.000000, 0.000000, 0.000000)" style="fill: rgb(255, 255, 255); fill-opacity: 0;" fill="none" class="fills"/><ellipse cx="744" cy="600" rx="2" ry="2" transform="matrix(1.000000, 0.000000, 0.000000, 1.000000, 0.000000, 0.000000)" style="fill: rgb(255, 255, 255); fill-opacity: 0;" fill="none" class="fills"/><path d="M760.000,602.000C760.553,602.000,761.053,601.776,761.415,601.415L758.586,598.586C758.224,598.947,758.000,599.447,758.000,600.000C758.000,601.105,758.895,602.000,760.000,602.000ZZ" style="fill: rgb(255, 255, 255); fill-opacity: 0;" fill="none" class="fills"/><ellipse cx="728" cy="584" rx="2" ry="2" transform="matrix(1.000000, 0.000000, 0.000000, 1.000000, 0.000000, 0.000000)" style="fill: rgb(255, 255, 255); fill-opacity: 0;" fill="none" class="fills"/><path d="M744.000,586.000C744.553,586.000,745.053,585.776,745.415,585.415L742.586,582.586C742.224,582.947,742.000,583.447,742.000,584.000C742.000,585.105,742.895,586.000,744.000,586.000ZZ" style="fill: rgb(255, 255, 255); fill-opacity: 0;" fill="none" class="fills"/><path d="M728.000,570.000C728.553,570.000,729.053,569.776,729.415,569.415L726.586,566.586C726.224,566.947,726.000,567.447,726.000,568.000C726.000,569.105,726.895,570.000,728.000,570.000ZZ" style="fill: rgb(255, 255, 255); fill-opacity: 0;" fill="none" class="fills"/><path d="M800.000,702.000C799.447,702.000,798.947,702.224,798.585,702.585L801.414,705.414C801.776,705.052,801.999,704.552,801.999,703.999C802.000,702.895,801.105,702.000,800.000,702.000ZZ" style="fill: rgb(255, 255, 255); fill-opacity: 0;" fill="none" class="fills"/><path d="M784.000,686.000C783.447,686.000,782.947,686.224,782.585,686.585L785.414,689.414C785.776,689.052,785.999,688.552,785.999,687.999C786.000,686.895,785.105,686.000,784.000,686.000ZZ" style="fill: rgb(255, 255, 255); fill-opacity: 0;" fill="none" class="fills"/><ellipse cx="800" cy="688" rx="2" ry="2" transform="matrix(1.000000, 0.000000, 0.000000, 1.000000, 0.000000, 0.000000)" style="fill: rgb(255, 255, 255); fill-opacity: 0;" fill="none" class="fills"/><path d="M768.000,670.000C767.447,670.000,766.947,670.224,766.585,670.585L769.414,673.414C769.776,673.052,769.999,672.552,769.999,671.999C770.000,670.895,769.105,670.000,768.000,670.000ZZ" style="fill: rgb(255, 255, 255); fill-opacity: 0;" fill="none" class="fills"/><ellipse cx="784" cy="672" rx="2" ry="2" transform="matrix(1.000000, 0.000000, 0.000000, 1.000000, 0.000000, 0.000000)" style="fill: rgb(255, 255, 255); fill-opacity: 0;" fill="none" class="fills"/><ellipse cx="800" cy="672" rx="2" ry="2" transform="matrix(1.000000, 0.000000, 0.000000, 1.000000, 0.000000, 0.000000)" style="fill: rgb(255, 255, 255); fill-opacity: 0;" fill="none" class="fills"/><path d="M760.000,662.000C759.447,662.000,758.947,662.224,758.585,662.585L761.414,665.414C761.776,665.052,761.999,664.552,761.999,663.999C762.000,662.895,761.105,662.000,760.000,662.000ZZ" style="fill: rgb(255, 255, 255); fill-opacity: 0;" fill="none" class="fills"/><ellipse cx="776" cy="664" rx="2" ry="2" transform="matrix(1.000000, 0.000000, 0.000000, 1.000000, 0.000000, 0.000000)" style="fill: rgb(255, 255, 255); fill-opacity: 0;" fill="none" class="fills"/><ellipse cx="808" cy="664" rx="2" ry="2" transform="matrix(1.000000, 0.000000, 0.000000, 1.000000, 0.000000, 0.000000)" style="fill: rgb(255, 255, 255); fill-opacity: 0;" fill="none" class="fills"/><path d="M808.000,710.000C807.447,710.000,806.947,710.224,806.585,710.585L809.414,713.414C809.776,713.052,809.999,712.552,809.999,711.999C810.000,710.895,809.105,710.000,808.000,710.000ZZ" style="fill: rgb(255, 255, 255); fill-opacity: 0;" fill="none" class="fills"/><path d="M792.000,694.000C791.447,694.000,790.947,694.224,790.585,694.585L793.414,697.414C793.776,697.052,793.999,696.552,793.999,695.999C794.000,694.895,793.105,694.000,792.000,694.000ZZ" style="fill: rgb(255, 255, 255); fill-opacity: 0;" fill="none" class="fills"/><ellipse cx="808" cy="696" rx="2" ry="2" transform="matrix(1.000000, 0.000000, 0.000000, 1.000000, 0.000000, 0.000000)" style="fill: rgb(255, 255, 255); fill-opacity: 0;" fill="none" class="fills"/><path d="M776.000,678.000C775.447,678.000,774.947,678.224,774.585,678.585L777.414,681.414C777.776,681.052,777.999,680.552,777.999,679.999C778.000,678.895,777.105,678.000,776.000,678.000ZZ" style="fill: rgb(255, 255, 255); fill-opacity: 0;" fill="none" class="fills"/><ellipse cx="792" cy="680" rx="2" ry="2" transform="matrix(1.000000, 0.000000, 0.000000, 1.000000, 0.000000, 0.000000)" style="fill: rgb(255, 255, 255); fill-opacity: 0;" fill="none" class="fills"/><ellipse cx="792" cy="664" rx="2" ry="2" transform="matrix(1.000000, 0.000000, 0.000000, 1.000000, 0.000000, 0.000000)" style="fill: rgb(255, 255, 255); fill-opacity: 0;" fill="none" class="fills"/><ellipse cx="808" cy="680" rx="2" ry="2" transform="matrix(1.000000, 0.000000, 0.000000, 1.000000, 0.000000, 0.000000)" style="fill: rgb(255, 255, 255); fill-opacity: 0;" fill="none" class="fills"/></g><path d="M336.000,336.000L336.000,304.000L368.000,304.000Z" class="fills"/><path d="M832.000,944.000L848.000,944.000L848.000,928.000Z" class="fills"/><ellipse cx="816" cy="496" rx="16" ry="16" transform="matrix(1.000000, 0.000000, 0.000000, 1.000000, 0.000000, 0.000000)" style="fill: rgb(41, 41, 42); fill-opacity: 1;" class="fills"/><ellipse cx="816" cy="448" rx="16" ry="16" transform="matrix(1.000000, 0.000000, 0.000000, 1.000000, 0.000000, 0.000000)" style="fill: rgb(41, 41, 42); fill-opacity: 1;" class="fills"/><ellipse cx="816" cy="400" rx="16" ry="16" transform="matrix(1.000000, 0.000000, 0.000000, 1.000000, 0.000000, 0.000000)" style="fill: rgb(41, 41, 42); fill-opacity: 1;" class="fills"/><ellipse cx="880" cy="496" rx="16" ry="16" transform="matrix(1.000000, 0.000000, 0.000000, 1.000000, 0.000000, 0.000000)" style="fill: rgb(41, 41, 42); fill-opacity: 1;" class="fills"/><ellipse cx="880" cy="448" rx="16" ry="16" transform="matrix(1.000000, 0.000000, 0.000000, 1.000000, 0.000000, 0.000000)" style="fill: rgb(198, 215, 40); fill-opacity: 1;" class="fills"/><ellipse cx="880" cy="400" rx="16" ry="16" transform="matrix(1.000000, 0.000000, 0.000000, 1.000000, 0.000000, 0.000000)" style="fill: rgb(198, 215, 40); fill-opacity: 1;" class="fills"/><g style="fill: rgb(0, 0, 0);"><path d="M744.000,240.000L744.000,224.000" style="fill: none; stroke-miterlimit: 10;" class="fills"/><g class="strokes" style="fill: none; stroke-miterlimit: 10;"><path d="M744.000,240.000L744.000,224.000" style="fill: none; stroke-width: 4; stroke: rgb(41, 41, 42); stroke-opacity: 1;" class="stroke-shape"/></g><path d="M752.000,232.000L736.000,232.000" style="fill: none; stroke-miterlimit: 10;" class="fills"/><g class="strokes" style="fill: none; stroke-miterlimit: 10;"><path d="M752.000,232.000L736.000,232.000" style="fill: none; stroke-width: 4; stroke: rgb(41, 41, 42); stroke-opacity: 1;" class="stroke-shape"/></g><path d="M744.000,272.000L744.000,256.000" style="fill: none; stroke-miterlimit: 10;" class="fills"/><g class="strokes" style="fill: none; stroke-miterlimit: 10;"><path d="M744.000,272.000L744.000,256.000" style="fill: none; stroke-width: 4; stroke: rgb(41, 41, 42); stroke-opacity: 1;" class="stroke-shape"/></g><path d="M752.000,264.000L736.000,264.000" style="fill: none; stroke-miterlimit: 10;" class="fills"/><g class="strokes" style="fill: none; stroke-miterlimit: 10;"><path d="M752.000,264.000L736.000,264.000" style="fill: none; stroke-width: 4; stroke: rgb(41, 41, 42); stroke-opacity: 1;" class="stroke-shape"/></g><path d="M776.000,272.000L776.000,256.000" style="fill: none; stroke-miterlimit: 10;" class="fills"/><g class="strokes" style="fill: none; stroke-miterlimit: 10;"><path d="M776.000,272.000L776.000,256.000" style="fill: none; stroke-width: 4; stroke: rgb(41, 41, 42); stroke-opacity: 1;" class="stroke-shape"/></g><path d="M784.000,264.000L768.000,264.000" style="fill: none; stroke-miterlimit: 10;" class="fills"/><g class="strokes" style="fill: none; stroke-miterlimit: 10;"><path d="M784.000,264.000L768.000,264.000" style="fill: none; stroke-width: 4; stroke: rgb(41, 41, 42); stroke-opacity: 1;" class="stroke-shape"/></g><path d="M744.000,208.000L744.000,192.000" style="fill: none; stroke-miterlimit: 10;" class="fills"/><g class="strokes" style="fill: none; stroke-miterlimit: 10;"><path d="M744.000,208.000L744.000,192.000" style="fill: none; stroke-width: 4; stroke: rgb(41, 41, 42); stroke-opacity: 1;" class="stroke-shape"/></g><path d="M752.000,200.000L736.000,200.000" style="fill: none; stroke-miterlimit: 10;" class="fills"/><g class="strokes" style="fill: none; stroke-miterlimit: 10;"><path d="M752.000,200.000L736.000,200.000" style="fill: none; stroke-width: 4; stroke: rgb(41, 41, 42); stroke-opacity: 1;" class="stroke-shape"/></g><path d="M776.000,240.000L776.000,224.000" style="fill: none; stroke-miterlimit: 10;" class="fills"/><g class="strokes" style="fill: none; stroke-miterlimit: 10;"><path d="M776.000,240.000L776.000,224.000" style="fill: none; stroke-width: 4; stroke: rgb(41, 41, 42); stroke-opacity: 1;" class="stroke-shape"/></g><path d="M784.000,232.000L768.000,232.000" style="fill: none; stroke-miterlimit: 10;" class="fills"/><g class="strokes" style="fill: none; stroke-miterlimit: 10;"><path d="M784.000,232.000L768.000,232.000" style="fill: none; stroke-width: 4; stroke: rgb(41, 41, 42); stroke-opacity: 1;" class="stroke-shape"/></g><path d="M776.000,304.000L776.000,288.000" style="fill: none; stroke-miterlimit: 10;" class="fills"/><g class="strokes" style="fill: none; stroke-miterlimit: 10;"><path d="M776.000,304.000L776.000,288.000" style="fill: none; stroke-width: 4; stroke: rgb(41, 41, 42); stroke-opacity: 1;" class="stroke-shape"/></g><path d="M784.000,296.000L768.000,296.000" style="fill: none; stroke-miterlimit: 10;" class="fills"/><g class="strokes" style="fill: none; stroke-miterlimit: 10;"><path d="M784.000,296.000L768.000,296.000" style="fill: none; stroke-width: 4; stroke: rgb(41, 41, 42); stroke-opacity: 1;" class="stroke-shape"/></g><path d="M744.000,304.000L744.000,288.000" style="fill: none; stroke-miterlimit: 10;" class="fills"/><g class="strokes" style="fill: none; stroke-miterlimit: 10;"><path d="M744.000,304.000L744.000,288.000" style="fill: none; stroke-width: 4; stroke: rgb(41, 41, 42); stroke-opacity: 1;" class="stroke-shape"/></g><path d="M752.000,296.000L736.000,296.000" style="fill: none; stroke-miterlimit: 10;" class="fills"/><g class="strokes" style="fill: none; stroke-miterlimit: 10;"><path d="M752.000,296.000L736.000,296.000" style="fill: none; stroke-width: 4; stroke: rgb(41, 41, 42); stroke-opacity: 1;" class="stroke-shape"/></g><path d="M776.000,336.000L776.000,320.000" style="fill: none; stroke-miterlimit: 10;" class="fills"/><g class="strokes" style="fill: none; stroke-miterlimit: 10;"><path d="M776.000,336.000L776.000,320.000" style="fill: none; stroke-width: 4; stroke: rgb(41, 41, 42); stroke-opacity: 1;" class="stroke-shape"/></g><path d="M784.000,328.000L768.000,328.000" style="fill: none; stroke-miterlimit: 10;" class="fills"/><g class="strokes" style="fill: none; stroke-miterlimit: 10;"><path d="M784.000,328.000L768.000,328.000" style="fill: none; stroke-width: 4; stroke: rgb(41, 41, 42); stroke-opacity: 1;" class="stroke-shape"/></g></g><rect rx="0" ry="0" x="592" y="208" transform="matrix(1.000000, 0.000000, 0.000000, 1.000000, 0.000000, 0.000000)" width="16" height="64" style="fill: rgb(198, 215, 40); fill-opacity: 1;" class="fills"/><rect rx="0" ry="0" x="560" y="208" transform="matrix(1.000000, 0.000000, 0.000000, 1.000000, 0.000000, 0.000000)" width="16" height="64" style="fill: rgb(198, 215, 40); fill-opacity: 1;" class="fills"/><path d="M592.000,464.000L464.000,592.000L464.000,560.000L592.000,432.000Z" class="fills"/><path d="M592.000,528.000L464.000,656.000L464.000,624.000L592.000,496.000Z" class="fills"/><path d="M592.000,560.000L464.000,688.000L464.000,656.000L592.000,528.000Z" style="fill: rgb(198, 215, 40); fill-opacity: 1;" class="fills"/><path d="M592.000,496.000L464.000,624.000L464.000,592.000L592.000,464.000Z" style="fill: rgb(198, 215, 40); fill-opacity: 1;" class="fills"/><path d="M656.000,608.000L592.000,672.000L592.000,688.000L656.000,624.000Z" class="fills"/><path d="M784.000,816.000L720.000,752.000L720.000,816.000L784.000,880.000Z" style="fill: rgb(41, 41, 42); fill-opacity: 1;" class="fills"/><rect rx="0" ry="0" x="304" y="560" transform="matrix(1.000000, 0.000000, 0.000000, 1.000000, 0.000000, 0.000000)" width="16" height="128" class="fills"/><rect rx="0" ry="0" x="272" y="560" transform="matrix(1.000000, 0.000000, 0.000000, 1.000000, 0.000000, 0.000000)" width="16" height="128" class="fills"/><rect rx="0" ry="0" x="704" y="640" transform="matrix(1.000000, 0.000000, 0.000000, 1.000000, 0.000000, 0.000000)" width="16" height="16" class="fills"/><rect rx="0" ry="0" x="688" y="656" transform="matrix(1.000000, 0.000000, 0.000000, 1.000000, 0.000000, 0.000000)" width="16" height="16" class="fills"/><rect rx="0" ry="0" x="672" y="672" transform="matrix(1.000000, 0.000000, 0.000000, 1.000000, 0.000000, 0.000000)" width="16" height="16" class="fills"/><rect rx="0" ry="0" x="672" y="640" transform="matrix(1.000000, 0.000000, 0.000000, 1.000000, 0.000000, 0.000000)" width="16" height="16" class="fills"/><rect rx="0" ry="0" x="656" y="656" transform="matrix(1.000000, 0.000000, 0.000000, 1.000000, 0.000000, 0.000000)" width="16" height="16" class="fills"/><rect rx="0" ry="0" x="640" y="672" transform="matrix(1.000000, 0.000000, 0.000000, 1.000000, 0.000000, 0.000000)" width="16" height="16" class="fills"/><rect rx="0" ry="0" x="640" y="640" transform="matrix(1.000000, 0.000000, 0.000000, 1.000000, 0.000000, 0.000000)" width="16" height="16" class="fills"/><rect rx="0" ry="0" x="624" y="656" transform="matrix(1.000000, 0.000000, 0.000000, 1.000000, 0.000000, 0.000000)" width="16" height="16" class="fills"/><rect rx="0" ry="0" x="608" y="672" transform="matrix(1.000000, 0.000000, 0.000000, 1.000000, 0.000000, 0.000000)" width="16" height="16" class="fills"/><rect rx="0" ry="0" x="704" y="672" transform="matrix(1.000000, 0.000000, 0.000000, 1.000000, 0.000000, 0.000000)" width="16" height="16" class="fills"/><rect rx="0" ry="0" x="704" y="656" transform="matrix(1.000000, 0.000000, 0.000000, 1.000000, 0.000000, 0.000000)" width="16" height="16" style="fill: rgb(255, 255, 255); fill-opacity: 0;" fill="none" class="fills"/><rect rx="0" ry="0" x="688" y="640" transform="matrix(1.000000, 0.000000, 0.000000, 1.000000, 0.000000, 0.000000)" width="16" height="16" style="fill: rgb(255, 255, 255); fill-opacity: 0;" fill="none" class="fills"/><rect rx="0" ry="0" x="688" y="672" transform="matrix(1.000000, 0.000000, 0.000000, 1.000000, 0.000000, 0.000000)" width="16" height="16" style="fill: rgb(255, 255, 255); fill-opacity: 0;" fill="none" class="fills"/><rect rx="0" ry="0" x="672" y="656" transform="matrix(1.000000, 0.000000, 0.000000, 1.000000, 0.000000, 0.000000)" width="16" height="16" style="fill: rgb(255, 255, 255); fill-opacity: 0;" fill="none" class="fills"/><rect rx="0" ry="0" x="656" y="640" transform="matrix(1.000000, 0.000000, 0.000000, 1.000000, 0.000000, 0.000000)" width="16" height="16" style="fill: rgb(255, 255, 255); fill-opacity: 0;" fill="none" class="fills"/><rect rx="0" ry="0" x="656" y="672" transform="matrix(1.000000, 0.000000, 0.000000, 1.000000, 0.000000, 0.000000)" width="16" height="16" style="fill: rgb(255, 255, 255); fill-opacity: 0;" fill="none" class="fills"/><rect rx="0" ry="0" x="640" y="656" transform="matrix(1.000000, 0.000000, 0.000000, 1.000000, 0.000000, 0.000000)" width="16" height="16" style="fill: rgb(255, 255, 255); fill-opacity: 0;" fill="none" class="fills"/><rect rx="0" ry="0" x="624" y="672" transform="matrix(1.000000, 0.000000, 0.000000, 1.000000, 0.000000, 0.000000)" width="16" height="16" style="fill: rgb(255, 255, 255); fill-opacity: 0;" fill="none" class="fills"/><path d="M624.000,656.000L640.000,640.000L640.000,656.000Z" style="fill: rgb(255, 255, 255); fill-opacity: 0;" fill="none" class="fills"/><path d="M608.000,672.000L624.000,656.000L624.000,672.000Z" style="fill: rgb(255, 255, 255); fill-opacity: 0;" fill="none" class="fills"/><path d="M592.000,688.000L608.000,672.000L608.000,688.000Z" style="fill: rgb(255, 255, 255); fill-opacity: 0;" fill="none" class="fills"/><rect rx="0" ry="0" x="496" y="912" transform="matrix(1.000000, 0.000000, 0.000000, 1.000000, 0.000000, 0.000000)" width="32" height="32" style="fill: rgb(255, 255, 255); fill-opacity: 0;" fill="none" class="fills"/><rect rx="0" ry="0" x="464" y="880" transform="matrix(1.000000, 0.000000, 0.000000, 1.000000, 0.000000, 0.000000)" width="32" height="32" class="fills"/><rect rx="0" ry="0" x="592" y="368" transform="matrix(1.000000, 0.000000, 0.000000, 1.000000, 0.000000, 0.000000)" width="32" height="32" style="fill: rgb(255, 255, 255); fill-opacity: 0;" fill="none" class="fills"/><rect rx="0" ry="0" x="464" y="688" transform="matrix(1.000000, 0.000000, 0.000000, 1.000000, 0.000000, 0.000000)" width="64" height="64" style="fill: rgb(255, 255, 255); fill-opacity: 0;" fill="none" class="fills"/><rect rx="0" ry="0" x="848" y="688" transform="matrix(1.000000, 0.000000, 0.000000, 1.000000, 0.000000, 0.000000)" width="64" height="64" style="fill: rgb(198, 215, 40); fill-opacity: 1;" class="fills"/><rect rx="0" ry="0" x="432" y="624" transform="matrix(1.000000, 0.000000, 0.000000, 1.000000, 0.000000, 0.000000)" width="32" height="32" style="fill: rgb(198, 215, 40); fill-opacity: 1;" class="fills"/><path d="M784.000,816.000L816.000,816.000L848.000,848.000L816.000,848.000Z" style="fill: rgb(198, 215, 40); fill-opacity: 1;" class="fills"/><path d="M656.000,48.000L720.000,112.000L720.000,176.000L656.000,112.000Z" style="fill: rgb(198, 215, 40); fill-opacity: 1;" class="fills"/><path d="M592.000,752.000L592.000,688.000L656.000,752.000Z" style="fill: rgb(255, 255, 255); fill-opacity: 0;" fill="none" class="fills"/><rect rx="0" ry="0" x="592" y="720" transform="matrix(1.000000, 0.000000, 0.000000, 1.000000, 0.000000, 0.000000)" width="16" height="16" style="fill: rgb(198, 215, 40); fill-opacity: 1;" class="fills"/><rect rx="0" ry="0" x="576" y="720" transform="matrix(1.000000, 0.000000, 0.000000, 1.000000, 0.000000, 0.000000)" width="16" height="16" class="fills"/><path d="M720.000,304.000L752.000,336.000L752.000,400.000L720.000,368.000Z" class="fills"/><rect rx="0" ry="0" x="640" y="960" transform="matrix(1.000000, 0.000000, 0.000000, 1.000000, 0.000000, 0.000000)" width="64" height="64" style="fill: rgb(198, 215, 40); fill-opacity: 1;" class="fills"/><rect rx="0" ry="0" x="656" y="976" transform="matrix(1.000000, 0.000000, 0.000000, 1.000000, 0.000000, 0.000000)" width="32" height="32" class="fills"/><path d="M464.000,304.000L496.000,272.000L496.000,208.000L464.000,240.000Z" style="fill: rgb(41, 41, 42); fill-opacity: 1;" class="fills"/><ellipse cx="400" cy="368" rx="32" ry="32" transform="matrix(1.000000, 0.000000, 0.000000, 1.000000, 0.000000, 0.000000)" style="fill: none; stroke-miterlimit: 10;" class="fills"/><g class="strokes" style="fill: none; stroke-miterlimit: 10;"><ellipse cx="400" cy="368" rx="32" ry="32" transform="matrix(1.000000, 0.000000, 0.000000, 1.000000, 0.000000, 0.000000)" style="fill: none; stroke-width: 8; stroke: rgb(73, 73, 73); stroke-opacity: 1;" class="stroke-shape"/></g><ellipse cx="368" cy="848" rx="32" ry="32" transform="matrix(1.000000, 0.000000, 0.000000, 1.000000, 0.000000, 0.000000)" style="fill: rgb(198, 215, 40); fill-opacity: 1;" class="fills"/></g></svg>