<?xml version="1.0" encoding="utf-8"?>
<!-- Generator: Adobe Illustrator 27.5.0, SVG Export Plug-In . SVG Version: 6.00 Build 0)  -->
<svg version="1.1" id="Artwork" xmlns="http://www.w3.org/2000/svg" xmlns:xlink="http://www.w3.org/1999/xlink" x="0px" y="0px"
	 viewBox="0 0 1200 1200" style="enable-background:new 0 0 1200 1200;" xml:space="preserve">
<rect style="fill:#FFFFFF;" width="1200" height="1200"/>
<rect x="336" y="304" style="fill:#FFC800;" width="128" height="128"/>
<polygon style="fill:#FFC800;" points="560,1104 576,1120 576,1056 560,1040 "/>
<polygon points="560,1104 592,1072 592,944 560,976 "/>
<rect x="524.118" y="780.118" transform="matrix(0.7071 -0.7071 0.7071 0.7071 -426.2338 666.9807)" width="135.764" height="135.764"/>
<polygon points="720,880 592,752 592,736 720,864 "/>
<polygon points="720,848 592,720 592,704 720,832 "/>
<polygon style="fill:#FFC800;" points="720,368 592,496 592,432 720,304 "/>
<polygon style="fill:#FFC800;" points="784,624 720,688 720,560 784,496 "/>
<polygon points="752,656 720,656 720,640 768,640 "/>
<polygon points="720,688 720,672 736,672 "/>
<polygon points="464,816 400,880 400,816 464,752 "/>
<polygon points="368,656 336,688 336,560 368,528 "/>
<polygon style="fill:#FFC800;" points="720,880 784,944 784,816 720,752 "/>
<polygon points="464,816 336,688 336,624 464,752 "/>
<polygon style="fill:#FFC800;" points="464,752 336,624 336,560 464,688 "/>
<polygon points="592,688 464,816 464,688 592,560 "/>
<polygon style="fill:#FFC800;" points="592,752 464,880 464,816 592,688 "/>
<polygon style="fill:#FFC800;" points="656,752 592,688 592,560 656,624 "/>
<polygon points="720,816 656,752 656,624 720,688 "/>
<polygon points="720,304 592,432 592,304 720,176 "/>
<polygon points="720,688 592,560 592,432 720,560 "/>
<polygon style="fill:#FFC800;" points="592,432 464,560 464,496 592,368 "/>
<polygon points="720,624 848,752 848,688 720,560 "/>
<polygon style="fill:#FFC800;" points="720,688 848,816 848,800 720,672 "/>
<polygon style="fill:#FFC800;" points="720,656 848,784 848,768 720,640 "/>
<polygon style="fill:#FFC800;" points="592,944 720,816 720,752 592,880 "/>
<polygon style="fill:#FFC800;" points="592,1072 464,944 464,816 592,944 "/>
<polygon style="fill:#FFC800;" points="720,688 592,816 592,688 720,560 "/>
<polygon style="fill:#FFC800;" points="720,432 720,304 784,368 784,496 "/>
<polygon style="fill:#FFC800;" points="368,528 336,496 336,432 368,464 "/>
<polygon style="fill:#FFC800;" points="688,256 671.992,272 624,272 624,208 688,208 "/>
<polygon style="fill:#FFFFFF;" points="672,272 672,256 688,256 "/>
<polygon style="fill:#FFC800;" points="400,880 464,944 464,880 400,816 "/>
<g>
	<circle cx="432" cy="928" r="2"/>
	<circle cx="432" cy="944" r="2"/>
	<circle cx="432" cy="960" r="2"/>
	<path d="M434,976c0-1.104-0.895-2-2-2c-0.553,0-1.053,0.224-1.414,0.586l2.828,2.829C433.776,977.052,434,976.552,434,976z"/>
	<path d="M464,1006c-0.553,0-1.053,0.224-1.414,0.586L464,1008V1006z"/>
	<path d="M450,992c0-1.104-0.895-2-2-2c-0.553,0-1.053,0.224-1.414,0.586l2.828,2.829C449.776,993.052,450,992.552,450,992z"/>
	<path d="M462,992c0,1.104,0.895,2,2,2v-4C462.895,990,462,990.896,462,992z"/>
	<circle cx="448" cy="976" r="2"/>
	<path d="M462,976c0,1.104,0.895,2,2,2v-4C462.895,974,462,974.896,462,976z"/>
	<circle cx="448" cy="960" r="2"/>
	<path d="M462,960c0,1.104,0.895,2,2,2v-4C462.895,958,462,958.896,462,960z"/>
	<circle cx="448" cy="944" r="2"/>
	<path d="M462,944c0,1.104,0.895,2,2,2v-2l-1.414-1.414C462.224,942.948,462,943.448,462,944z"/>
	<path d="M446,928c0,1.104,0.895,2,2,2c0.553,0,1.053-0.224,1.414-0.586l-2.828-2.829C446.224,926.948,446,927.448,446,928z"/>
	<path d="M438,920c0,1.104,0.895,2,2,2c0.553,0,1.053-0.224,1.414-0.586l-2.828-2.829C438.224,918.948,438,919.448,438,920z"/>
	<circle cx="440" cy="936" r="2"/>
	<circle cx="440" cy="952" r="2"/>
	<circle cx="440" cy="968" r="2"/>
	<path d="M442,984c0-1.104-0.895-2-2-2c-0.553,0-1.053,0.224-1.414,0.586l2.828,2.829C441.776,985.052,442,984.552,442,984z"/>
	<path d="M458,1000c0-1.104-0.895-2-2-2c-0.553,0-1.053,0.224-1.414,0.586l2.828,2.829C457.776,1001.052,458,1000.552,458,1000z"/>
	<circle cx="456" cy="984" r="2"/>
	<circle cx="456" cy="968" r="2"/>
	<circle cx="456" cy="952" r="2"/>
	<path d="M454,936c0,1.104,0.895,2,2,2c0.553,0,1.053-0.224,1.414-0.586l-2.828-2.829C454.224,934.948,454,935.448,454,936z"/>
	<path d="M430,912c0,1.104,0.895,2,2,2c0.553,0,1.053-0.224,1.414-0.586l-2.828-2.829C430.224,910.948,430,911.448,430,912z"/>
	<circle cx="416" cy="912" r="2"/>
	<path d="M402,896c0-1.104-0.895-2-2-2v4C401.105,898,402,897.104,402,896z"/>
	<path d="M414,896c0,1.104,0.895,2,2,2c0.553,0,1.053-0.224,1.414-0.586l-2.828-2.829C414.224,894.948,414,895.448,414,896z"/>
	<path d="M400,882c0.553,0,1.053-0.224,1.414-0.586L400,880V882z"/>
	<circle cx="408" cy="904" r="2"/>
	<path d="M422,904c0,1.104,0.895,2,2,2c0.553,0,1.053-0.224,1.414-0.586l-2.828-2.829C422.224,902.948,422,903.448,422,904z"/>
	<path d="M406,888c0,1.104,0.895,2,2,2c0.553,0,1.053-0.224,1.414-0.586l-2.828-2.829C406.224,886.948,406,887.448,406,888z"/>
	<path d="M418,960c0-1.104-0.895-2-2-2c-0.553,0-1.053,0.224-1.414,0.586l2.828,2.829C417.776,961.052,418,960.552,418,960z"/>
	<path d="M402,944c0-1.104-0.895-2-2-2v2l1.414,1.414C401.776,945.052,402,944.552,402,944z"/>
	<circle cx="416" cy="944" r="2"/>
	<path d="M402,928c0-1.104-0.895-2-2-2v4C401.105,930,402,929.104,402,928z"/>
	<path d="M402,912c0-1.104-0.895-2-2-2v4C401.105,914,402,913.104,402,912z"/>
	<circle cx="416" cy="928" r="2"/>
	<circle cx="424" cy="920" r="2"/>
	<path d="M426,968c0-1.104-0.895-2-2-2c-0.553,0-1.053,0.224-1.414,0.586l2.828,2.829C425.776,969.052,426,968.552,426,968z"/>
	<path d="M410,952c0-1.104-0.895-2-2-2c-0.553,0-1.053,0.224-1.414,0.586l2.828,2.829C409.776,953.052,410,952.552,410,952z"/>
	<circle cx="424" cy="952" r="2"/>
	<circle cx="408" cy="936" r="2"/>
	<circle cx="408" cy="920" r="2"/>
	<circle cx="424" cy="936" r="2"/>
</g>
<polygon points="592,944 528,1008 528,944 592,880 "/>
<g>
	<polygon points="412.437,483.563 410.602,485.398 464,485.398 464,483.563 	"/>
	<polygon points="427.118,468.882 425.282,470.718 464,470.718 464,468.882 	"/>
	<polygon points="441.799,454.201 439.963,456.036 464,456.036 464,454.201 	"/>
	<polygon points="456.479,439.521 454.645,441.356 464,441.356 464,439.521 	"/>
	<polygon points="400,556.968 400,558.803 401.197,558.803 403.032,556.968 	"/>
	<polygon points="400,542.287 400,544.122 415.878,544.122 417.713,542.287 	"/>
	<polygon points="400,527.606 400,529.441 430.559,529.441 432.394,527.606 	"/>
	<polygon points="400,512.925 400,514.76 445.24,514.76 447.075,512.925 	"/>
	<polygon points="400,498.244 400,500.079 459.92,500.079 461.756,498.244 	"/>
</g>
<polygon points="592,320 464,448 464,432 592,304 "/>
<polygon points="592,352 464,480 464,464 592,336 "/>
<polygon points="736,492 724,492 724,480 716,480 716,492 704,492 704,500 716,500 716,512 724,512 724,500 736,500 "/>
<g>
	<g>
		
			<line style="fill:none;stroke:#000000;stroke-width:4;stroke-linecap:round;stroke-linejoin:round;" x1="848" y1="672" x2="848" y2="672"/>
		
			<line style="fill:none;stroke:#000000;stroke-width:4;stroke-linecap:round;stroke-linejoin:round;stroke-dasharray:0,8;" x1="848" y1="664" x2="848" y2="372"/>
		
			<line style="fill:none;stroke:#000000;stroke-width:4;stroke-linecap:round;stroke-linejoin:round;" x1="848" y1="368" x2="848" y2="368"/>
		
			<line style="fill:none;stroke:#000000;stroke-width:4;stroke-linecap:round;stroke-linejoin:round;stroke-dasharray:0,8;" x1="840" y1="368" x2="804" y2="368"/>
		
			<line style="fill:none;stroke:#000000;stroke-width:4;stroke-linecap:round;stroke-linejoin:round;" x1="800" y1="368" x2="800" y2="368"/>
	</g>
</g>
<g>
	<g>
		
			<line style="fill:none;stroke:#000000;stroke-width:4;stroke-linecap:round;stroke-linejoin:round;" x1="600" y1="1064" x2="600" y2="1064"/>
		
			<line style="fill:none;stroke:#000000;stroke-width:4;stroke-linecap:round;stroke-linejoin:round;stroke-dasharray:0,8.1459;" x1="605.76" y1="1058.24" x2="741.12" y2="922.88"/>
		
			<line style="fill:none;stroke:#000000;stroke-width:4;stroke-linecap:round;stroke-linejoin:round;" x1="744" y1="920" x2="744" y2="920"/>
	</g>
</g>
<g>
	<circle style="fill:#FFFFFF;" cx="816" cy="672" r="2"/>
	<circle style="fill:#FFFFFF;" cx="816" cy="688" r="2"/>
	<circle style="fill:#FFFFFF;" cx="816" cy="704" r="2"/>
	<path style="fill:#FFFFFF;" d="M816,718c-0.553,0-1.053,0.224-1.415,0.585l2.829,2.829c0.362-0.362,0.585-0.862,0.585-1.415
		C818,718.895,817.105,718,816,718z"/>
	<path style="fill:#FFFFFF;" d="M848,750c-0.553,0-1.053,0.224-1.414,0.586L848,752V750z"/>
	<path style="fill:#FFFFFF;" d="M834,736c0-1.104-0.895-2-2-2c-0.553,0-1.053,0.224-1.414,0.586l2.828,2.829
		C833.776,737.052,834,736.552,834,736z"/>
	<path style="fill:#FFFFFF;" d="M846,736c0,1.104,0.895,2,2,2v-4C846.895,734,846,734.896,846,736z"/>
	<circle style="fill:#FFFFFF;" cx="832" cy="720" r="2"/>
	<path style="fill:#FFFFFF;" d="M846,720c0,1.105,0.895,2,2,2v-4C846.895,718,846,718.895,846,720z"/>
	<circle style="fill:#FFFFFF;" cx="832" cy="704" r="2"/>
	<path style="fill:#FFFFFF;" d="M846,704c0,1.105,0.895,2,2,2v-4C846.895,702,846,702.895,846,704z"/>
	<circle style="fill:#FFFFFF;" cx="832" cy="688" r="2"/>
	<path style="fill:#FFFFFF;" d="M848,690v-2l-1.415-1.415C846.224,686.947,846,687.447,846,688C846,689.105,846.895,690,848,690z"/>
	<path style="fill:#FFFFFF;" d="M832,674c0.553,0,1.053-0.224,1.415-0.585l-2.829-2.829C830.224,670.947,830,671.447,830,672
		C830,673.105,830.895,674,832,674z"/>
	<path style="fill:#FFFFFF;" d="M824,666c0.553,0,1.053-0.224,1.415-0.585l-2.829-2.829C822.224,662.947,822,663.447,822,664
		C822,665.105,822.895,666,824,666z"/>
	<circle style="fill:#FFFFFF;" cx="824" cy="680" r="2"/>
	<circle style="fill:#FFFFFF;" cx="824" cy="696" r="2"/>
	<circle style="fill:#FFFFFF;" cx="824" cy="712" r="2"/>
	<path style="fill:#FFFFFF;" d="M824,726c-0.553,0-1.053,0.224-1.415,0.585l2.829,2.829c0.362-0.362,0.585-0.862,0.585-1.415
		C826,726.895,825.105,726,824,726z"/>
	<path style="fill:#FFFFFF;" d="M842,744c0-1.104-0.895-2-2-2c-0.553,0-1.053,0.224-1.414,0.586l2.828,2.829
		C841.776,745.052,842,744.552,842,744z"/>
	<circle style="fill:#FFFFFF;" cx="840" cy="728" r="2"/>
	<circle style="fill:#FFFFFF;" cx="840" cy="712" r="2"/>
	<circle style="fill:#FFFFFF;" cx="840" cy="696" r="2"/>
	<path style="fill:#FFFFFF;" d="M840,682c0.553,0,1.053-0.224,1.415-0.585l-2.829-2.829C838.224,678.947,838,679.447,838,680
		C838,681.105,838.895,682,840,682z"/>
	<path style="fill:#FFFFFF;" d="M814,656c0,1.105,0.895,2,2,2c0.553,0,1.053-0.224,1.415-0.585l-2.829-2.829
		C814.224,654.948,814,655.448,814,656z"/>
	<path style="fill:#FFFFFF;" d="M752,654c-0.553,0-1.053,0.224-1.414,0.586l2.829,2.829c0.362-0.362,0.585-0.862,0.585-1.415
		C754,654.896,753.105,654,752,654z"/>
	<circle style="fill:#FFFFFF;" cx="768" cy="656" r="2"/>
	<circle style="fill:#FFFFFF;" cx="784" cy="656" r="2"/>
	<circle style="fill:#FFFFFF;" cx="800" cy="656" r="2"/>
	<path style="fill:#FFFFFF;" d="M738,640c0-1.104-0.895-2-2-2c-0.553,0-1.053,0.224-1.414,0.586l2.828,2.829
		C737.776,641.052,738,640.552,738,640z"/>
	<circle style="fill:#FFFFFF;" cx="752" cy="640" r="2"/>
	<circle style="fill:#FFFFFF;" cx="768" cy="640" r="2"/>
	<circle style="fill:#FFFFFF;" cx="784" cy="640" r="2"/>
	<path style="fill:#FFFFFF;" d="M798,640c0,1.104,0.895,2,2,2c0.553,0,1.053-0.224,1.414-0.586l-2.828-2.829
		C798.224,638.948,798,639.448,798,640z"/>
	<path style="fill:#FFFFFF;" d="M722,624c0-1.104-0.895-2-2-2v2l1.414,1.414C721.776,625.052,722,624.552,722,624z"/>
	<circle style="fill:#FFFFFF;" cx="736" cy="624" r="2"/>
	<circle style="fill:#FFFFFF;" cx="752" cy="624" r="2"/>
	<circle style="fill:#FFFFFF;" cx="768" cy="624" r="2"/>
	<path style="fill:#FFFFFF;" d="M782,624c0,1.104,0.895,2,2,2c0.553,0,1.053-0.224,1.414-0.586l-2.828-2.829
		C782.224,622.948,782,623.448,782,624z"/>
	<path style="fill:#FFFFFF;" d="M722,608c0-1.104-0.895-2-2-2v4C721.105,610,722,609.104,722,608z"/>
	<circle style="fill:#FFFFFF;" cx="736" cy="608" r="2"/>
	<circle style="fill:#FFFFFF;" cx="752" cy="608" r="2"/>
	<path style="fill:#FFFFFF;" d="M766,608c0,1.104,0.895,2,2,2c0.553,0,1.053-0.224,1.414-0.586l-2.828-2.829
		C766.224,606.948,766,607.448,766,608z"/>
	<path style="fill:#FFFFFF;" d="M720,590v4c1.105,0,2-0.895,2-2S721.105,590,720,590z"/>
	<circle style="fill:#FFFFFF;" cx="736" cy="592" r="2"/>
	<path style="fill:#FFFFFF;" d="M752,594c0.553,0,1.053-0.224,1.415-0.585l-2.829-2.829C750.224,590.947,750,591.447,750,592
		C750,593.105,750.895,594,752,594z"/>
	<path style="fill:#FFFFFF;" d="M720,574v4c1.105,0,2-0.895,2-2S721.105,574,720,574z"/>
	<path style="fill:#FFFFFF;" d="M736,578c0.553,0,1.053-0.224,1.415-0.585l-2.829-2.829C734.224,574.947,734,575.447,734,576
		C734,577.105,734.895,578,736,578z"/>
	<path style="fill:#FFFFFF;" d="M720,562c0.553,0,1.053-0.224,1.415-0.585L720,560V562z"/>
	<path style="fill:#FFFFFF;" d="M746,648c0-1.104-0.895-2-2-2c-0.553,0-1.053,0.224-1.414,0.586l2.828,2.829
		C745.776,649.052,746,648.552,746,648z"/>
	<circle style="fill:#FFFFFF;" cx="760" cy="648" r="2"/>
	<circle style="fill:#FFFFFF;" cx="776" cy="648" r="2"/>
	<circle style="fill:#FFFFFF;" cx="792" cy="648" r="2"/>
	<path style="fill:#FFFFFF;" d="M806,648c0,1.104,0.895,2,2,2c0.553,0,1.053-0.224,1.414-0.586l-2.828-2.829
		C806.224,646.948,806,647.448,806,648z"/>
	<path style="fill:#FFFFFF;" d="M730,632c0-1.104-0.895-2-2-2c-0.553,0-1.053,0.224-1.414,0.586l2.828,2.829
		C729.776,633.052,730,632.552,730,632z"/>
	<circle style="fill:#FFFFFF;" cx="744" cy="632" r="2"/>
	<circle style="fill:#FFFFFF;" cx="760" cy="632" r="2"/>
	<circle style="fill:#FFFFFF;" cx="776" cy="632" r="2"/>
	<path style="fill:#FFFFFF;" d="M790,632c0,1.104,0.895,2,2,2c0.553,0,1.053-0.224,1.414-0.586l-2.828-2.829
		C790.224,630.948,790,631.448,790,632z"/>
	<circle style="fill:#FFFFFF;" cx="728" cy="616" r="2"/>
	<circle style="fill:#FFFFFF;" cx="744" cy="616" r="2"/>
	<circle style="fill:#FFFFFF;" cx="760" cy="616" r="2"/>
	<path style="fill:#FFFFFF;" d="M774,616c0,1.104,0.895,2,2,2c0.553,0,1.053-0.224,1.414-0.586l-2.828-2.829
		C774.224,614.948,774,615.448,774,616z"/>
	<circle style="fill:#FFFFFF;" cx="728" cy="600" r="2"/>
	<circle style="fill:#FFFFFF;" cx="744" cy="600" r="2"/>
	<path style="fill:#FFFFFF;" d="M760,602c0.553,0,1.053-0.224,1.415-0.585l-2.829-2.829C758.224,598.947,758,599.447,758,600
		C758,601.105,758.895,602,760,602z"/>
	<circle style="fill:#FFFFFF;" cx="728" cy="584" r="2"/>
	<path style="fill:#FFFFFF;" d="M744,586c0.553,0,1.053-0.224,1.415-0.585l-2.829-2.829C742.224,582.947,742,583.447,742,584
		C742,585.105,742.895,586,744,586z"/>
	<path style="fill:#FFFFFF;" d="M728,570c0.553,0,1.053-0.224,1.415-0.585l-2.829-2.829C726.224,566.947,726,567.447,726,568
		C726,569.105,726.895,570,728,570z"/>
	<path style="fill:#FFFFFF;" d="M800,702c-0.553,0-1.053,0.224-1.415,0.585l2.829,2.829c0.362-0.362,0.585-0.862,0.585-1.415
		C802,702.895,801.105,702,800,702z"/>
	<path style="fill:#FFFFFF;" d="M784,686c-0.553,0-1.053,0.224-1.415,0.585l2.829,2.829c0.362-0.362,0.585-0.862,0.585-1.415
		C786,686.895,785.105,686,784,686z"/>
	<circle style="fill:#FFFFFF;" cx="800" cy="688" r="2"/>
	<path style="fill:#FFFFFF;" d="M768,670c-0.553,0-1.053,0.224-1.415,0.585l2.829,2.829c0.362-0.362,0.585-0.862,0.585-1.415
		C770,670.895,769.105,670,768,670z"/>
	<circle style="fill:#FFFFFF;" cx="784" cy="672" r="2"/>
	<circle style="fill:#FFFFFF;" cx="800" cy="672" r="2"/>
	<path style="fill:#FFFFFF;" d="M760,662c-0.553,0-1.053,0.224-1.415,0.585l2.829,2.829c0.362-0.362,0.585-0.862,0.585-1.415
		C762,662.895,761.105,662,760,662z"/>
	<circle style="fill:#FFFFFF;" cx="776" cy="664" r="2"/>
	<circle style="fill:#FFFFFF;" cx="808" cy="664" r="2"/>
	<path style="fill:#FFFFFF;" d="M808,710c-0.553,0-1.053,0.224-1.415,0.585l2.829,2.829c0.362-0.362,0.585-0.862,0.585-1.415
		C810,710.895,809.105,710,808,710z"/>
	<path style="fill:#FFFFFF;" d="M792,694c-0.553,0-1.053,0.224-1.415,0.585l2.829,2.829c0.362-0.362,0.585-0.862,0.585-1.415
		C794,694.895,793.105,694,792,694z"/>
	<circle style="fill:#FFFFFF;" cx="808" cy="696" r="2"/>
	<path style="fill:#FFFFFF;" d="M776,678c-0.553,0-1.053,0.224-1.415,0.585l2.829,2.829c0.362-0.362,0.585-0.862,0.585-1.415
		C778,678.895,777.105,678,776,678z"/>
	<circle style="fill:#FFFFFF;" cx="792" cy="680" r="2"/>
	<circle style="fill:#FFFFFF;" cx="792" cy="664" r="2"/>
	<circle style="fill:#FFFFFF;" cx="808" cy="680" r="2"/>
</g>
<polygon points="336,336 336,304 368,304 "/>
<polygon points="832,944 848,944 848,928 "/>
<circle cx="816" cy="496" r="16"/>
<circle cx="816" cy="448" r="16"/>
<circle cx="816" cy="400" r="16"/>
<circle cx="880" cy="496" r="16"/>
<circle style="fill:#FFC800;" cx="880" cy="448" r="16"/>
<circle style="fill:#FFC800;" cx="880" cy="400" r="16"/>
<g>
	<line style="fill:none;stroke:#000000;stroke-width:4;stroke-miterlimit:10;" x1="744" y1="240" x2="744" y2="224"/>
	<line style="fill:none;stroke:#000000;stroke-width:4;stroke-miterlimit:10;" x1="752" y1="232" x2="736" y2="232"/>
	<line style="fill:none;stroke:#000000;stroke-width:4;stroke-miterlimit:10;" x1="744" y1="272" x2="744" y2="256"/>
	<line style="fill:none;stroke:#000000;stroke-width:4;stroke-miterlimit:10;" x1="752" y1="264" x2="736" y2="264"/>
	<line style="fill:none;stroke:#000000;stroke-width:4;stroke-miterlimit:10;" x1="776" y1="272" x2="776" y2="256"/>
	<line style="fill:none;stroke:#000000;stroke-width:4;stroke-miterlimit:10;" x1="784" y1="264" x2="768" y2="264"/>
	<line style="fill:none;stroke:#000000;stroke-width:4;stroke-miterlimit:10;" x1="744" y1="208" x2="744" y2="192"/>
	<line style="fill:none;stroke:#000000;stroke-width:4;stroke-miterlimit:10;" x1="752" y1="200" x2="736" y2="200"/>
	<line style="fill:none;stroke:#000000;stroke-width:4;stroke-miterlimit:10;" x1="776" y1="240" x2="776" y2="224"/>
	<line style="fill:none;stroke:#000000;stroke-width:4;stroke-miterlimit:10;" x1="784" y1="232" x2="768" y2="232"/>
	<line style="fill:none;stroke:#000000;stroke-width:4;stroke-miterlimit:10;" x1="776" y1="304" x2="776" y2="288"/>
	<line style="fill:none;stroke:#000000;stroke-width:4;stroke-miterlimit:10;" x1="784" y1="296" x2="768" y2="296"/>
	<line style="fill:none;stroke:#000000;stroke-width:4;stroke-miterlimit:10;" x1="744" y1="304" x2="744" y2="288"/>
	<line style="fill:none;stroke:#000000;stroke-width:4;stroke-miterlimit:10;" x1="752" y1="296" x2="736" y2="296"/>
	<line style="fill:none;stroke:#000000;stroke-width:4;stroke-miterlimit:10;" x1="776" y1="336" x2="776" y2="320"/>
	<line style="fill:none;stroke:#000000;stroke-width:4;stroke-miterlimit:10;" x1="784" y1="328" x2="768" y2="328"/>
</g>
<rect x="592" y="208" style="fill:#FFC800;" width="16" height="64"/>
<rect x="560" y="208" style="fill:#FFC800;" width="16" height="64"/>
<polygon points="592,464 464,592 464,560 592,432 "/>
<polygon points="592,528 464,656 464,624 592,496 "/>
<polygon style="fill:#FFC800;" points="592,560 464,688 464,656 592,528 "/>
<polygon style="fill:#FFC800;" points="592,496 464,624 464,592 592,464 "/>
<polygon points="656,608 592,672 592,688 656,624 "/>
<polygon points="784,816 720,752 720,816 784,880 "/>
<rect x="304" y="560" width="16" height="128"/>
<rect x="272" y="560" width="16" height="128"/>
<rect x="704" y="640" width="16" height="16"/>
<rect x="688" y="656" width="16" height="16"/>
<rect x="672" y="672" width="16" height="16"/>
<rect x="672" y="640" width="16" height="16"/>
<rect x="656" y="656" width="16" height="16"/>
<rect x="640" y="672" width="16" height="16"/>
<rect x="640" y="640" width="16" height="16"/>
<rect x="624" y="656" width="16" height="16"/>
<rect x="608" y="672" width="16" height="16"/>
<rect x="704" y="672" width="16" height="16"/>
<rect x="704" y="656" style="fill:#FFFFFF;" width="16" height="16"/>
<rect x="688" y="640" style="fill:#FFFFFF;" width="16" height="16"/>
<rect x="688" y="672" style="fill:#FFFFFF;" width="16" height="16"/>
<rect x="672" y="656" style="fill:#FFFFFF;" width="16" height="16"/>
<rect x="656" y="640" style="fill:#FFFFFF;" width="16" height="16"/>
<rect x="656" y="672" style="fill:#FFFFFF;" width="16" height="16"/>
<rect x="640" y="656" style="fill:#FFFFFF;" width="16" height="16"/>
<rect x="624" y="672" style="fill:#FFFFFF;" width="16" height="16"/>
<polygon style="fill:#FFFFFF;" points="624,656 640,640 640,656 "/>
<polygon style="fill:#FFFFFF;" points="608,672 624,656 624,672 "/>
<polygon style="fill:#FFFFFF;" points="592,688 608,672 608,688 "/>
<rect x="496" y="912" style="fill:#FFFFFF;" width="32" height="32"/>
<rect x="464" y="880" width="32" height="32"/>
<rect x="592" y="368" style="fill:#FFFFFF;" width="32" height="32"/>
<rect x="464" y="688" style="fill:#FFFFFF;" width="64" height="64"/>
<rect x="848" y="688" style="fill:#FFC800;" width="64" height="64"/>
<rect x="432" y="624" style="fill:#FFC800;" width="32" height="32"/>
<polygon style="fill:#FFC800;" points="784,816 816,816 848,848 816,848 "/>
<polygon style="fill:#FFC800;" points="656,48 720,112 720,176 656,112 "/>
<polygon style="fill:#FFFFFF;" points="592,752 592,688 656,752 "/>
<rect x="592" y="720" style="fill:#FFC800;" width="16" height="16"/>
<rect x="576" y="720" width="16" height="16"/>
<polygon points="720,304 752,336 752,400 720,368 "/>
<rect x="640" y="960" style="fill:#FFC800;" width="64" height="64"/>
<rect x="656" y="976" width="32" height="32"/>
<polygon points="464,304 496,272 496,208 464,240 "/>
<circle style="fill:none;stroke:#FFFFFF;stroke-width:8;stroke-miterlimit:10;" cx="400" cy="368" r="32"/>
<circle style="fill:#FFC800;" cx="368" cy="848" r="32"/>
</svg>
